# xmcd
#
# Track frame offsets:
#	150
#	17025
#	36129
#	51078
#	66275
#	86936
#	103123
#	119626
#	136681
#	155515
#	170876
#
# Disc length: 2497 seconds
# Revision: 0
# Processed by: cddbd v1.5.2PL0 Copyright (c) Steve Scherf et al.
# Submitted via: dBpowerAMP V12.0
#
DISCID=9b09bf0b
DTITLE=Harper And Midwest Kind - Show Your Love
DYEAR=2016
DGENRE=Blues Soul
TTITLE0=Hell Yeah
TTITLE1=What's Goin' Down
TTITLE2=Show Your Love
TTITLE3=Drive Brother Drive
TTITLE4=I Can't Stand This
TTITLE5=It's All In The Game
TTITLE6=It's Time To Go
TTITLE7=We Are In Control
TTITLE8=Let's Move
TTITLE9=Hey What You Say
TTITLE10=I Look At Life
EXTD=
EXTT0=
EXTT1=
EXTT2=
EXTT3=
EXTT4=
EXTT5=
EXTT6=
EXTT7=
EXTT8=
EXTT9=
EXTT10=
PLAYORDER=
